<svg width="80" height="89" viewBox="0 0 80 89" fill="none" xmlns="http://www.w3.org/2000/svg">
<g filter="url(#filter0_d)">
<rect x="13.5369" y="24.7217" width="52.9262" height="52.9262" stroke="black" stroke-width="6"/>
<path d="M38.7367 21.0875C38.0379 22.2467 37.3949 22.8213 36.8376 23.1317C36.2844 23.4398 35.6117 23.6014 34.6553 23.5961C33.6589 23.5907 32.4785 23.4071 30.9564 23.1012C30.4876 23.007 29.9786 22.8994 29.4394 22.7855C28.3201 22.5489 27.0708 22.2848 25.7809 22.0559C22.2092 21.4221 19.9709 20.4801 18.6031 19.4185C17.3272 18.4283 16.6911 17.2475 16.4799 15.7141C16.2669 14.1678 16.649 11.9596 17.7786 10.0639C18.8723 8.22851 20.5499 6.8616 22.8685 6.54227C23.657 6.43368 25.2262 6.77939 27.4136 7.95155C29.4848 9.06138 31.7245 10.7043 33.6948 12.5616C35.6792 14.4324 37.2657 16.4032 38.1478 18.1195C39.0935 19.9595 38.904 20.8099 38.7367 21.0875Z" stroke="black" stroke-width="5"/>
<path d="M42.1854 19.8162C42.7456 21.0165 43.2909 21.6032 43.7471 21.9188C44.1917 22.2264 44.7548 22.4177 45.614 22.47C46.5189 22.5252 47.6187 22.4203 49.0719 22.2114C49.5149 22.1477 49.9989 22.073 50.5129 21.9935C51.5852 21.8279 52.7882 21.642 54.0218 21.4946C57.3976 21.0911 59.5462 20.3028 60.8993 19.3453C62.1701 18.4461 62.8872 17.2963 63.2232 15.7378C63.5608 14.1716 63.3765 11.9265 62.4757 9.97084C61.5998 8.06945 60.1726 6.67719 58.1417 6.23944C57.5094 6.10316 56.0724 6.31138 53.9142 7.34466C51.8902 8.31372 49.6569 9.80381 47.6535 11.5286C45.6382 13.2637 43.9798 15.1295 43.0016 16.7948C41.9511 18.5832 42.0372 19.4985 42.1854 19.8162Z" stroke="black" stroke-width="5"/>
<rect x="7.81543" y="24.4498" width="64.3692" height="14.3428" fill="white" stroke="black" stroke-width="6"/>
<line x1="32.5598" y1="24.4026" x2="32.5598" y2="76.0095" stroke="black" stroke-width="5"/>
<line x1="48.1606" y1="24.4026" x2="48.1605" y2="76.0095" stroke="black" stroke-width="5"/>
</g>
<defs>
<filter id="filter0_d" x="0.81543" y="0.533684" width="78.3692" height="88.1142" filterUnits="userSpaceOnUse" color-interpolation-filters="sRGB">
<feFlood flood-opacity="0" result="BackgroundImageFix"/>
<feColorMatrix in="SourceAlpha" type="matrix" values="0 0 0 0 0 0 0 0 0 0 0 0 0 0 0 0 0 0 127 0"/>
<feOffset dy="4"/>
<feGaussianBlur stdDeviation="2"/>
<feColorMatrix type="matrix" values="0 0 0 0 0 0 0 0 0 0 0 0 0 0 0 0 0 0 0.25 0"/>
<feBlend mode="normal" in2="BackgroundImageFix" result="effect1_dropShadow"/>
<feBlend mode="normal" in="SourceGraphic" in2="effect1_dropShadow" result="shape"/>
</filter>
</defs>
</svg>
