<svg width="282" height="281" viewBox="0 0 282 281" fill="none" xmlns="http://www.w3.org/2000/svg">
<g filter="url(#filter0_d)">
<circle cx="141" cy="136.319" r="70" fill="black"/>
<circle cx="141" cy="136.319" r="70" stroke="#939393"/>
<path d="M141.906 194.786C137.826 194.546 135.786 194.266 135.786 193.946L137.466 180.626C133.866 180.306 128.786 179.666 122.226 178.706L120.306 178.466L121.266 171.146C127.346 171.946 133.066 172.546 138.426 172.946L142.386 142.946C136.626 141.586 132.146 140.066 128.946 138.386C125.746 136.706 123.386 134.506 121.866 131.786C120.426 128.986 119.706 125.306 119.706 120.746C119.706 112.986 121.746 107.506 125.826 104.306C129.986 101.106 136.426 99.5057 145.146 99.5057L147.906 99.6257L149.946 84.1457L156.066 84.1457L154.026 99.9857C159.226 100.466 163.386 100.946 166.506 101.426L169.026 101.786L168.306 109.226L164.946 108.866C159.106 108.226 155.146 107.826 153.066 107.666L149.466 135.626C154.906 136.906 159.106 138.346 162.066 139.946C165.106 141.466 167.306 143.546 168.666 146.186C170.026 148.746 170.706 152.226 170.706 156.626C170.706 172.866 162.266 180.986 145.386 180.986L143.586 180.986L141.906 194.786ZM146.946 107.306C140.226 107.306 135.466 108.226 132.666 110.066C129.946 111.906 128.586 115.306 128.586 120.266C128.586 123.146 129.026 125.426 129.906 127.106C130.866 128.786 132.386 130.186 134.466 131.306C136.546 132.346 139.546 133.346 143.466 134.306L146.946 107.306ZM144.666 173.186C150.506 173.186 154.826 171.866 157.626 169.226C160.426 166.586 161.826 162.586 161.826 157.226C161.826 154.426 161.386 152.226 160.506 150.626C159.706 149.026 158.346 147.786 156.426 146.906C154.586 145.946 151.906 145.026 148.386 144.146L144.666 173.186Z" fill="black" fill-opacity="0.3"/>
<path d="M136.014 192.923C131.934 192.683 129.894 192.403 129.894 192.083L131.574 178.763C127.974 178.443 122.894 177.803 116.334 176.843L114.414 176.603L115.374 169.283C121.454 170.083 127.174 170.683 132.534 171.083L136.494 141.083C130.734 139.723 126.254 138.203 123.054 136.523C119.854 134.843 117.494 132.643 115.974 129.923C114.534 127.123 113.814 123.443 113.814 118.883C113.814 111.123 115.854 105.643 119.934 102.443C124.094 99.2434 130.534 97.6434 139.254 97.6434L142.014 97.7634L144.054 82.2834L150.174 82.2834L148.134 98.1234C153.334 98.6034 157.494 99.0834 160.614 99.5634L163.134 99.9234L162.414 107.363L159.054 107.003C153.214 106.363 149.254 105.963 147.174 105.803L143.574 133.763C149.014 135.043 153.214 136.483 156.174 138.083C159.214 139.603 161.414 141.683 162.774 144.323C164.134 146.883 164.814 150.363 164.814 154.763C164.814 171.003 156.374 179.123 139.494 179.123L137.694 179.123L136.014 192.923ZM141.054 105.443C134.334 105.443 129.574 106.363 126.774 108.203C124.054 110.043 122.694 113.443 122.694 118.403C122.694 121.283 123.134 123.563 124.014 125.243C124.974 126.923 126.494 128.323 128.574 129.443C130.654 130.483 133.654 131.483 137.574 132.443L141.054 105.443ZM138.774 171.323C144.614 171.323 148.934 170.003 151.734 167.363C154.534 164.723 155.934 160.723 155.934 155.363C155.934 152.563 155.494 150.363 154.614 148.763C153.814 147.163 152.454 145.923 150.534 145.043C148.694 144.083 146.014 143.163 142.494 142.283L138.774 171.323Z" fill="white"/>
<path d="M136.014 192.923L135.956 193.922L136.893 193.977L137.007 193.044L136.014 192.923ZM129.894 192.083L128.902 191.958L128.894 192.021L128.894 192.083L129.894 192.083ZM131.574 178.763L132.566 178.889L132.696 177.859L131.663 177.767L131.574 178.763ZM116.334 176.843L116.479 175.854L116.469 175.852L116.458 175.851L116.334 176.843ZM114.414 176.603L113.423 176.473L113.292 177.471L114.29 177.596L114.414 176.603ZM115.374 169.283L115.505 168.292L114.513 168.161L114.383 169.153L115.374 169.283ZM132.534 171.083L132.46 172.081L133.402 172.151L133.526 171.214L132.534 171.083ZM136.494 141.083L137.486 141.214L137.604 140.318L136.724 140.11L136.494 141.083ZM123.054 136.523L123.519 135.638L123.054 136.523ZM115.974 129.923L115.085 130.381L115.093 130.396L115.101 130.411L115.974 129.923ZM119.934 102.443L119.325 101.651L119.317 101.657L119.934 102.443ZM139.254 97.6434L139.298 96.6443L139.276 96.6434L139.254 96.6434L139.254 97.6434ZM142.014 97.7634L141.971 98.7625L142.886 98.8022L143.006 97.894L142.014 97.7634ZM144.054 82.2834L144.054 81.2834L143.177 81.2834L143.063 82.1527L144.054 82.2834ZM150.174 82.2834L151.166 82.4111L151.311 81.2834L150.174 81.2834L150.174 82.2834ZM148.134 98.1234L147.142 97.9957L147.01 99.0239L148.042 99.1192L148.134 98.1234ZM160.614 99.5634L160.462 100.552L160.473 100.553L160.614 99.5634ZM163.134 99.9234L164.13 100.02L164.222 99.0686L163.276 98.9334L163.134 99.9234ZM162.414 107.363L162.308 108.358L163.312 108.465L163.41 107.46L162.414 107.363ZM159.054 107.003L158.945 107.997L158.948 107.998L159.054 107.003ZM147.174 105.803L147.251 104.806L146.304 104.733L146.182 105.676L147.174 105.803ZM143.574 133.763L142.582 133.636L142.467 134.53L143.345 134.737L143.574 133.763ZM156.174 138.083L155.699 138.963L155.713 138.971L155.727 138.978L156.174 138.083ZM162.774 144.323L161.885 144.781L161.891 144.793L162.774 144.323ZM137.694 179.123L137.694 178.123L136.809 178.123L136.702 179.003L137.694 179.123ZM141.054 105.443L142.046 105.571L142.191 104.443L141.054 104.443L141.054 105.443ZM126.774 108.203L126.225 107.368L126.214 107.375L126.774 108.203ZM124.014 125.243L123.128 125.707L123.137 125.724L123.146 125.74L124.014 125.243ZM128.574 129.443L128.1 130.324L128.114 130.331L128.127 130.338L128.574 129.443ZM137.574 132.443L137.336 133.415L138.423 133.681L138.566 132.571L137.574 132.443ZM138.774 171.323L137.782 171.196L137.638 172.323L138.774 172.323L138.774 171.323ZM151.734 167.363L152.42 168.091L151.734 167.363ZM154.614 148.763L153.72 149.211L153.729 149.228L153.738 149.245L154.614 148.763ZM150.534 145.043L150.072 145.93L150.094 145.942L150.118 145.952L150.534 145.043ZM142.494 142.283L142.737 141.313L141.645 141.04L141.502 142.156L142.494 142.283ZM136.073 191.925C134.039 191.805 132.54 191.677 131.56 191.543C131.063 191.474 130.74 191.41 130.559 191.357C130.461 191.328 130.463 191.319 130.509 191.347C130.534 191.362 130.613 191.412 130.695 191.514C130.784 191.624 130.894 191.819 130.894 192.083L128.894 192.083C128.894 192.69 129.36 192.989 129.471 193.056C129.645 193.162 129.838 193.229 129.995 193.275C130.323 193.372 130.766 193.452 131.288 193.524C132.348 193.67 133.91 193.801 135.956 193.922L136.073 191.925ZM130.886 192.209L132.566 178.889L130.582 178.638L128.902 191.958L130.886 192.209ZM131.663 177.767C128.091 177.45 123.033 176.813 116.479 175.854L116.19 177.833C122.756 178.794 127.858 179.437 131.486 179.759L131.663 177.767ZM116.458 175.851L114.538 175.611L114.29 177.596L116.21 177.836L116.458 175.851ZM115.406 176.733L116.366 169.413L114.383 169.153L113.423 176.473L115.406 176.733ZM115.244 170.275C121.34 171.077 127.079 171.679 132.46 172.081L132.609 170.086C127.27 169.688 121.569 169.09 115.505 168.292L115.244 170.275ZM133.526 171.214L137.486 141.214L135.503 140.953L131.543 170.953L133.526 171.214ZM136.724 140.11C131.001 138.759 126.613 137.262 123.519 135.638L122.589 137.409C125.896 139.145 130.468 140.688 136.265 142.057L136.724 140.11ZM123.519 135.638C120.463 134.033 118.258 131.961 116.847 129.436L115.101 130.411C116.73 133.326 119.246 135.653 122.589 137.409L123.519 135.638ZM116.864 129.466C115.522 126.857 114.814 123.351 114.814 118.883L112.814 118.883C112.814 123.536 113.547 127.39 115.085 130.381L116.864 129.466ZM114.814 118.883C114.814 111.274 116.814 106.161 120.551 103.23L119.317 101.657C114.894 105.126 112.814 110.973 112.814 118.883L114.814 118.883ZM120.544 103.236C124.447 100.234 130.622 98.6434 139.254 98.6434L139.254 96.6434C130.447 96.6434 123.742 98.2529 119.325 101.651L120.544 103.236ZM139.211 98.6424L141.971 98.7625L142.058 96.7643L139.298 96.6443L139.211 98.6424ZM143.006 97.894L145.046 82.414L143.063 82.1527L141.023 97.6327L143.006 97.894ZM144.054 83.2834L150.174 83.2834L150.174 81.2834L144.054 81.2834L144.054 83.2834ZM149.182 82.1557L147.142 97.9957L149.126 98.2511L151.166 82.4111L149.182 82.1557ZM148.042 99.1192C153.233 99.5983 157.371 100.076 160.462 100.552L160.766 98.575C157.618 98.0906 153.435 97.6085 148.226 97.1276L148.042 99.1192ZM160.473 100.553L162.993 100.913L163.276 98.9334L160.756 98.5734L160.473 100.553ZM162.139 99.8271L161.419 107.267L163.41 107.46L164.13 100.02L162.139 99.8271ZM162.521 106.369L159.161 106.009L158.948 107.998L162.308 108.358L162.521 106.369ZM159.163 106.009C153.325 105.37 149.35 104.968 147.251 104.806L147.098 106.8C149.159 106.959 153.103 107.357 158.945 107.997L159.163 106.009ZM146.182 105.676L142.582 133.636L144.566 133.891L148.166 105.931L146.182 105.676ZM143.345 134.737C148.748 136.008 152.851 137.424 155.699 138.963L156.65 137.204C153.578 135.543 149.281 134.079 143.803 132.79L143.345 134.737ZM155.727 138.978C158.606 140.417 160.636 142.357 161.885 144.781L163.663 143.865C162.192 141.01 159.823 138.79 156.622 137.189L155.727 138.978ZM161.891 144.793C163.145 147.152 163.814 150.449 163.814 154.763L165.814 154.763C165.814 150.277 165.124 146.614 163.657 143.854L161.891 144.793ZM163.814 154.763C163.814 162.719 161.749 168.505 157.791 172.313C153.826 176.128 147.79 178.123 139.494 178.123L139.494 180.123C148.079 180.123 154.703 178.059 159.178 173.754C163.66 169.442 165.814 163.048 165.814 154.763L163.814 154.763ZM139.494 178.123L137.694 178.123L137.694 180.123L139.494 180.123L139.494 178.123ZM136.702 179.003L135.022 192.803L137.007 193.044L138.687 179.244L136.702 179.003ZM141.054 104.443C134.301 104.443 129.285 105.357 126.225 107.368L127.323 109.039C129.864 107.37 134.368 106.443 141.054 106.443L141.054 104.443ZM126.214 107.375C123.098 109.483 121.694 113.29 121.694 118.403L123.694 118.403C123.694 113.597 125.01 110.604 127.335 109.032L126.214 107.375ZM121.694 118.403C121.694 121.368 122.145 123.829 123.128 125.707L124.9 124.779C124.124 123.298 123.694 121.198 123.694 118.403L121.694 118.403ZM123.146 125.74C124.218 127.615 125.892 129.135 128.1 130.324L129.048 128.563C127.097 127.512 125.731 126.232 124.883 124.747L123.146 125.74ZM128.127 130.338C130.305 131.427 133.389 132.448 137.336 133.415L137.812 131.472C133.92 130.519 131.003 129.54 129.022 128.549L128.127 130.338ZM138.566 132.571L142.046 105.571L140.063 105.316L136.583 132.316L138.566 132.571ZM138.774 172.323C144.741 172.323 149.359 170.978 152.42 168.091L151.048 166.636C148.51 169.029 144.488 170.323 138.774 170.323L138.774 172.323ZM152.42 168.091C155.489 165.197 156.934 160.888 156.934 155.363L154.934 155.363C154.934 160.559 153.579 164.249 151.048 166.636L152.42 168.091ZM156.934 155.363C156.934 152.477 156.484 150.087 155.491 148.281L153.738 149.245C154.505 150.639 154.934 152.65 154.934 155.363L156.934 155.363ZM155.509 148.316C154.589 146.477 153.039 145.091 150.951 144.134L150.118 145.952C151.869 146.755 153.04 147.85 153.72 149.211L155.509 148.316ZM150.997 144.157C149.054 143.143 146.285 142.2 142.737 141.313L142.252 143.254C145.743 144.126 148.335 145.024 150.072 145.93L150.997 144.157ZM141.502 142.156L137.782 171.196L139.766 171.45L143.486 142.41L141.502 142.156Z" fill="white"/>
<rect x="128.48" y="0.0282593" width="25.039" height="56.3377" fill="black"/>
<rect x="128.48" y="216.319" width="25.039" height="56.3377" fill="black"/>
<rect x="4.68591" y="148.862" width="25.039" height="56.3377" transform="rotate(-90 4.68591 148.862)" fill="black"/>
<rect x="220.976" y="148.862" width="25.039" height="56.3377" transform="rotate(-90 220.976 148.862)" fill="black"/>
<rect x="35.7587" y="48.8064" width="25.039" height="56.3377" transform="rotate(-45 35.7587 48.8064)" fill="black"/>
<rect x="188.699" y="201.747" width="25.039" height="56.3377" transform="rotate(-45 188.699 201.747)" fill="black"/>
<rect x="53.464" y="241.584" width="25.039" height="56.3377" transform="rotate(-135 53.464 241.584)" fill="black"/>
<rect x="206.404" y="88.6431" width="25.039" height="56.3377" transform="rotate(-135 206.404 88.6431)" fill="black"/>
</g>
<defs>
<filter id="filter0_d" x="0.685913" y="0.0282593" width="280.628" height="280.628" filterUnits="userSpaceOnUse" color-interpolation-filters="sRGB">
<feFlood flood-opacity="0" result="BackgroundImageFix"/>
<feColorMatrix in="SourceAlpha" type="matrix" values="0 0 0 0 0 0 0 0 0 0 0 0 0 0 0 0 0 0 127 0"/>
<feOffset dy="4"/>
<feGaussianBlur stdDeviation="2"/>
<feColorMatrix type="matrix" values="0 0 0 0 0 0 0 0 0 0 0 0 0 0 0 0 0 0 0.25 0"/>
<feBlend mode="normal" in2="BackgroundImageFix" result="effect1_dropShadow"/>
<feBlend mode="normal" in="SourceGraphic" in2="effect1_dropShadow" result="shape"/>
</filter>
</defs>
</svg>
